<svg width="24" height="24" viewBox="0 0 24 24" fill="none" xmlns="http://www.w3.org/2000/svg">
<path d="M14.1854 17.063C15.7281 17.063 16.6688 16.2123 16.8694 14.6342L17.9104 14.7699C17.6972 16.7671 16.305 18 14.1854 18C12.1661 18 10.7237 16.8164 10.2722 14.8808H8.95522V13.9808H10.1342C10.1217 13.8205 10.1217 13.6603 10.1217 13.5C10.1217 13.3644 10.1217 13.2288 10.1342 13.0932H8.95522V12.1932H10.2596C10.7112 10.2329 12.1661 9 14.1854 9C16.1671 9 17.5843 10.1712 17.8728 12.0082L16.882 12.1685C16.5935 10.726 15.6528 9.93699 14.1854 9.93699C12.7179 9.93699 11.6769 10.7753 11.3006 12.1932H14.9128V13.0932H11.1501C11.1376 13.2288 11.1376 13.3644 11.1376 13.5C11.1376 13.6603 11.1501 13.8205 11.1627 13.9808H14.0349V14.8808H11.3132C11.7145 16.2616 12.7305 17.063 14.1854 17.063Z" fill="#050505"/>
<path fill-rule="evenodd" clip-rule="evenodd" d="M0 10.5C0 14.254 1.96418 17.55 4.91542 19.407L4.92537 19.421C6.80796 22.185 9.97114 24 13.5522 24C19.3184 24 24 19.295 24 13.5C24 9.746 22.0358 6.45 19.0846 4.593C17.203 1.821 14.0348 0 10.4478 0C4.68159 0 0 4.705 0 10.5ZM23.005 13.5C23.005 8.257 18.7692 4 13.5522 4C8.33532 4 4.0995 8.257 4.0995 13.5C4.0995 18.743 8.33532 23 13.5522 23C18.7692 23 23.005 18.743 23.005 13.5ZM10.4478 1C12.9343 1 15.198 1.967 16.8856 3.547C15.8388 3.192 14.7174 3 13.5522 3C7.78607 3 3.10448 7.705 3.10448 13.5C3.10448 14.813 3.34527 16.07 3.78308 17.229L3.78706 17.239C2.06269 15.517 0.995025 13.133 0.995025 10.5C0.995025 5.257 5.23084 1 10.4478 1Z" fill="#050505"/>
</svg>
