<svg width="95" height="24" viewBox="0 0 95 24" fill="none" xmlns="http://www.w3.org/2000/svg">
<path d="M17.9082 3.96537C17.174 2.70823 16.1524 1.73506 14.8329 1.03896C13.5134 0.34632 11.9758 0 10.2199 0H0V23.6745H5.44416C5.98788 23.6745 6.42424 23.2346 6.42424 22.6944V16.6476H9.98441C11.7887 16.6476 13.3645 16.3117 14.7186 15.6433C16.0727 14.9714 17.1221 14.0156 17.8736 12.7758C18.6251 11.5359 19.0026 10.0675 19.0026 8.37056C19.0026 6.67359 18.6355 5.22251 17.9048 3.96537H17.9082ZM11.8684 10.116C11.581 10.6078 11.1688 10.9887 10.632 11.2554C10.0952 11.5221 9.45108 11.6537 8.6961 11.6537H6.43117V5.13247H8.6961C9.45108 5.13247 10.0952 5.26061 10.632 5.52035C11.1688 5.78009 11.581 6.14719 11.8684 6.63203C12.1558 7.11688 12.3013 7.69524 12.3013 8.37056C12.3013 9.04589 12.1558 9.62424 11.8684 10.116Z" fill="black"/>
<path d="M20.5991 23.6745V5.91861H26.7948V9.29524H26.9784C27.3004 8.04502 27.8164 7.1342 28.5229 6.55584C29.2294 5.97749 30.0537 5.69004 31.0026 5.69004C31.2796 5.69004 31.5567 5.71082 31.8303 5.75238C32.1039 5.79394 32.3671 5.85281 32.6234 5.93247V11.3766C32.3082 11.2693 31.9169 11.1861 31.4563 11.1342C30.9957 11.0823 30.5974 11.0545 30.2649 11.0545C29.6416 11.0545 29.0805 11.1965 28.5818 11.4771C28.0831 11.7576 27.6918 12.1524 27.4078 12.658C27.1238 13.1636 26.9784 13.7558 26.9784 14.4312V23.6779H20.5957L20.5991 23.6745Z" fill="black"/>
<path d="M75.148 18.8883C75.0234 18.9195 74.8329 18.9576 74.5766 19.0026C74.3169 19.0476 74.0918 19.0719 73.9013 19.0719C73.6242 19.0719 73.3957 19.0303 73.219 18.9506C73.0424 18.871 72.9108 18.7463 72.8277 18.5801C72.7411 18.4139 72.6996 18.2095 72.6996 17.9602V10.5385H76.0416V5.91515H72.6996V1.08745H66.3169V5.91861H59.5186V1.08745H53.1359V5.91861H50.8225V10.542H53.1359V18.5662C53.1221 19.8061 53.3645 20.8381 53.8632 21.6658C54.3654 22.49 55.1134 23.0926 56.1074 23.4736C57.1013 23.8545 58.3307 24.0069 59.7957 23.9307C60.5195 23.8926 61.1463 23.8095 61.6727 23.6883C62.1991 23.5671 62.6078 23.4597 62.8918 23.3766L61.9671 18.8918C61.8424 18.9229 61.6519 18.961 61.3957 19.0061C61.1359 19.0511 60.9108 19.0753 60.7203 19.0753C60.4433 19.0753 60.2147 19.0338 60.0381 18.9541C59.8615 18.8745 59.7299 18.7498 59.6467 18.5835C59.5602 18.4173 59.5186 18.213 59.5186 17.9636V11.5221C59.5186 10.9784 59.9584 10.542 60.4987 10.542H66.3134V18.5662C66.2996 19.8061 66.542 20.8381 67.0407 21.6658C67.5429 22.49 68.2909 23.0926 69.2848 23.4736C70.2788 23.8545 71.5082 24.0069 72.9732 23.9307C73.697 23.8926 74.3238 23.8095 74.8502 23.6883C75.3766 23.5671 75.7853 23.4597 76.0693 23.3766L75.1446 18.8918L75.148 18.8883Z" fill="black"/>
<path d="M85.6242 24C83.6987 24 82.0467 23.6156 80.6753 22.8502C79.3039 22.0848 78.2511 21.0113 77.5203 19.6364C76.7861 18.2615 76.4225 16.6649 76.4225 14.8433C76.4225 13.0216 76.7896 11.4286 77.5203 10.0502C78.2511 8.67533 79.3039 7.60173 80.6753 6.83636C82.0467 6.071 83.6952 5.68658 85.6242 5.68658C87.5532 5.68658 89.2017 6.071 90.5732 6.83636C91.9446 7.60173 92.9974 8.67533 93.7281 10.0502C94.4589 11.4251 94.826 13.0216 94.826 14.8433C94.826 16.6649 94.4589 18.258 93.7281 19.6364C92.9974 21.0113 91.9446 22.0848 90.5732 22.8502C89.2017 23.6156 87.5532 24 85.6242 24ZM85.6727 19.2831C86.213 19.2831 86.677 19.103 87.0718 18.7394C87.4632 18.3792 87.768 17.8597 87.9861 17.1913C88.2043 16.5229 88.3082 15.7229 88.3082 14.7983C88.3082 13.8736 88.2009 13.0667 87.9861 12.3983C87.7714 11.7299 87.4667 11.2173 87.0718 10.8537C86.6805 10.4935 86.213 10.31 85.6727 10.31C85.1013 10.31 84.613 10.49 84.2043 10.8537C83.7957 11.2173 83.484 11.7299 83.2693 12.3983C83.0545 13.0667 82.9472 13.8632 82.9472 14.7983C82.9472 15.7333 83.0545 16.5195 83.2693 17.1913C83.484 17.8632 83.7957 18.3792 84.2043 18.7394C84.613 19.103 85.1013 19.2831 85.6727 19.2831Z" fill="black"/>
<path d="M50.7671 16.2597V14.781C50.7671 13.3714 50.5593 12.1039 50.1437 10.9784C49.7281 9.85281 49.1325 8.89697 48.3636 8.1039C47.5913 7.31429 46.6632 6.71169 45.5792 6.2961C44.4918 5.88052 43.2796 5.67273 41.9394 5.67273C40.1039 5.67273 38.5143 6.05368 37.1636 6.81558C35.813 7.57749 34.7706 8.64762 34.0294 10.019C33.2883 11.3905 32.9177 12.9939 32.9177 14.8294C32.9177 16.6649 33.2848 18.3792 34.0225 19.7472C34.7567 21.1152 35.8095 22.1645 37.1775 22.8918C38.5455 23.619 40.1766 23.9827 42.0745 23.9827C43.716 23.9827 45.1498 23.7333 46.3792 23.2381C47.6087 22.7429 49.0182 21.6935 49.7662 20.7861L46.3065 17.271C44.5091 19.3905 42.729 19.4182 42.729 19.4182C39.1723 19.716 39.2069 16.5368 39.2069 16.5368V16.2597H50.7671ZM39.6156 11.3939C39.8753 11.0095 40.2182 10.7048 40.6511 10.4866C41.084 10.2684 41.555 10.1576 42.0745 10.1576C42.5939 10.1576 43.0822 10.2684 43.5013 10.4866C43.9203 10.7048 44.2563 11.0095 44.5056 11.4009C44.755 11.7887 44.8866 12.239 44.8935 12.7481H39.2069C39.2208 12.232 39.3593 11.7818 39.619 11.3939H39.6156Z" fill="black"/>
</svg>
