<svg width="25" height="24" viewBox="0 0 25 24" fill="none" xmlns="http://www.w3.org/2000/svg">
<path fill-rule="evenodd" clip-rule="evenodd" d="M9.07011 7C8.83847 8.14112 7.8296 9 6.62012 9C5.41064 9 4.40176 8.14112 4.17013 7H0V6H4.17013C4.40176 4.85888 5.41064 4 6.62012 4C7.8296 4 8.83847 4.85888 9.07011 6H24V7H9.07011ZM8.12012 6.5C8.12012 7.32843 7.44854 8 6.62012 8C5.79169 8 5.12012 7.32843 5.12012 6.5C5.12012 5.67157 5.79169 5 6.62012 5C7.44854 5 8.12012 5.67157 8.12012 6.5Z" fill="#050505"/>
<path fill-rule="evenodd" clip-rule="evenodd" d="M6.62012 16C5.41064 16 4.40176 16.8589 4.17013 18H0V19H4.17013C4.40176 20.1411 5.41064 21 6.62012 21C7.8296 21 8.83847 20.1411 9.07011 19H24V18H9.07011C8.83847 16.8589 7.8296 16 6.62012 16ZM6.62012 20C7.44854 20 8.12012 19.3284 8.12012 18.5C8.12012 17.6716 7.44854 17 6.62012 17C5.79169 17 5.12012 17.6716 5.12012 18.5C5.12012 19.3284 5.79169 20 6.62012 20Z" fill="#050505"/>
<path fill-rule="evenodd" clip-rule="evenodd" d="M15.1701 13H0V12H15.1701C15.4018 10.8589 16.4106 10 17.6201 10C18.8296 10 19.8385 10.8589 20.0701 12H24V13H20.0701C19.8385 14.1411 18.8296 15 17.6201 15C16.4106 15 15.4018 14.1411 15.1701 13ZM19.1201 12.5C19.1201 13.3284 18.4485 14 17.6201 14C16.7917 14 16.1201 13.3284 16.1201 12.5C16.1201 11.6716 16.7917 11 17.6201 11C18.4485 11 19.1201 11.6716 19.1201 12.5Z" fill="#050505"/>
</svg>
